<svg xmlns="http://www.w3.org/2000/svg" viewBox="0 0 203.03 203.03">
  <defs>
    <style>
      .cls-1 {
        fill: #e0ad69;
      }
    </style>
  </defs>
  <g id="Layer_2" data-name="Layer 2">
    <g id="Layer_1-2" data-name="Layer 1">
      <g>
        <path class="cls-1" d="M101.51,0A101.52,101.52,0,1,0,203,101.52,101.51,101.51,0,0,0,101.51,0Zm0,188.33a86.82,86.82,0,1,1,86.81-86.81A86.81,86.81,0,0,1,101.51,188.33Z"/>
        <g>
          <path class="cls-1" d="M124.78,142.55H112.29l-6.21-16-22-56.38c-.87-2.43-1.73-4.9-2.6-7.41h-.29L55.12,130.06H92l4.86,12.47v0H37.92L76.37,48.13h10Z"/>
          <g>
            <polygon class="cls-1" points="157.75 48.13 157.75 60.62 100.99 60.62 95.91 48.13 157.75 48.13"/>
            <polygon class="cls-1" points="157.75 89.09 157.75 101.58 117.68 101.58 112.59 89.09 157.75 89.09"/>
            <polygon class="cls-1" points="157.75 130.06 157.75 142.55 134.36 142.55 129.28 130.06 157.75 130.06"/>
          </g>
        </g>
      </g>
    </g>
  </g>
</svg>
