<svg xmlns="http://www.w3.org/2000/svg" viewBox="0 0 745.11 249.65"><defs><style>.cls-1{fill:#fff;}</style></defs><g id="Layer_2" data-name="Layer 2"><g id="Layer_1-2" data-name="Layer 1"><path class="cls-1" d="M124.82,0A124.83,124.83,0,1,0,249.65,124.83,124.82,124.82,0,0,0,124.82,0Zm0,231.58A106.75,106.75,0,1,1,231.57,124.83,106.75,106.75,0,0,1,124.82,231.58Z"/><path class="cls-1" d="M304.6,84.55H289.25l-2.7,6.25a9.72,9.72,0,0,0-1,3.45,2.25,2.25,0,0,0,.16.87,1.78,1.78,0,0,0,.66.73,4.33,4.33,0,0,0,1.4.55,15.71,15.71,0,0,0,2.37.34v1.08H277.67V96.74a6.88,6.88,0,0,0,3.21-1.14,9,9,0,0,0,1.57-2.12c.53-1,1.11-2.14,1.74-3.58l13.94-32.64h1l13.8,33a29.81,29.81,0,0,0,1.57,3.29A7.9,7.9,0,0,0,316,95.47a4.33,4.33,0,0,0,1.65,1,9.57,9.57,0,0,0,2.12.32v1.08H304.13V96.74a10.61,10.61,0,0,0,2-.26,3.91,3.91,0,0,0,1.24-.53,1.93,1.93,0,0,0,.65-.73,2.24,2.24,0,0,0,.19-.91,5.54,5.54,0,0,0-.28-1.65c-.21-.67-.5-1.48-.89-2.41Zm-.82-2.17-6.73-16-6.9,16Z"/><path class="cls-1" d="M331.53,56.24V91.77a19.55,19.55,0,0,0,.09,2.09,5.7,5.7,0,0,0,.26,1.29,1.84,1.84,0,0,0,.46.74,2.72,2.72,0,0,0,.68.47,6.49,6.49,0,0,0,2.84.41v1H322.73v-1a8.3,8.3,0,0,0,2.09-.21,2.09,2.09,0,0,0,1.2-.76,3.1,3.1,0,0,0,.54-1.52,21.1,21.1,0,0,0,.12-2.51V67.44c0-1.52,0-2.75-.05-3.67a11.3,11.3,0,0,0-.16-1.89,2.61,2.61,0,0,0-.67-1.43,1.69,1.69,0,0,0-1.14-.38,5.31,5.31,0,0,0-1.93.47l-.5-1,8-3.27Z"/><path class="cls-1" d="M343.46,81.12a16.83,16.83,0,0,0,.79,5.36,12.82,12.82,0,0,0,2.14,4A9.06,9.06,0,0,0,349.5,93a8.33,8.33,0,0,0,3.73.86,7.51,7.51,0,0,0,4.58-1.44,10.79,10.79,0,0,0,3.26-5l.9.58a13.88,13.88,0,0,1-1.23,3.86,13.12,13.12,0,0,1-2.32,3.4,11.69,11.69,0,0,1-3.31,2.41,9.24,9.24,0,0,1-4.1.92,10.68,10.68,0,0,1-4.52-1,11.18,11.18,0,0,1-3.72-2.78,13.45,13.45,0,0,1-2.52-4.35,16.55,16.55,0,0,1-.94-5.75,18.76,18.76,0,0,1,.95-6.19A13.52,13.52,0,0,1,342.88,74a10.89,10.89,0,0,1,3.93-2.84,12.34,12.34,0,0,1,4.87-1,10.66,10.66,0,0,1,4.11.77,9.51,9.51,0,0,1,3.26,2.21,10.3,10.3,0,0,1,2.15,3.44,12.46,12.46,0,0,1,.77,4.48Zm0-1.69h12.4a10.53,10.53,0,0,0-.61-3.63,5.84,5.84,0,0,0-2.18-2.57,5.48,5.48,0,0,0-3-.94,5.61,5.61,0,0,0-2.31.49,6.34,6.34,0,0,0-2,1.4,7.71,7.71,0,0,0-1.5,2.24A9.11,9.11,0,0,0,343.46,79.43Z"/><path class="cls-1" d="M364.46,71h12.6v1.08a2.56,2.56,0,0,0-1.69.41,1.33,1.33,0,0,0-.47,1.08,1.91,1.91,0,0,0,.11.6,4.47,4.47,0,0,0,.37.71c.17.28.38.6.63,1s.54.82.88,1.34l1.9,3,2.19-3c1.4-1.93,2.1-3.14,2.1-3.65a1.31,1.31,0,0,0-.49-1,2.48,2.48,0,0,0-1.61-.42V71h9.07v1.08a5.93,5.93,0,0,0-1.54.3,5,5,0,0,0-1.4.82,11.72,11.72,0,0,0-1.54,1.54c-.55.64-1.19,1.46-1.93,2.45L380,82.12l6.66,9.59c.84,1.21,1.53,2.15,2.06,2.82A9,9,0,0,0,390.15,96a3,3,0,0,0,1.24.6,9.69,9.69,0,0,0,1.49.15v1H380.25v-1a3.66,3.66,0,0,0,1.86-.44,1.36,1.36,0,0,0,.74-1.23c0-.43-.62-1.56-1.87-3.39L377.06,86l-4.3,5.73c-1.32,1.75-2,2.81-2,3.16a1.66,1.66,0,0,0,.66,1.27,3.19,3.19,0,0,0,2,.63v1h-8.75v-1a5.33,5.33,0,0,0,1.13-.29,4,4,0,0,0,1.11-.75,13.3,13.3,0,0,0,1.37-1.49c.52-.63,1.18-1.48,2-2.53l5.61-7.46-5.09-7.37c-.74-1.07-1.37-1.92-1.9-2.56a8,8,0,0,0-1.46-1.43,3.71,3.71,0,0,0-1.36-.63,8.32,8.32,0,0,0-1.59-.14Z"/><path class="cls-1" d="M336.57,115.72v19.91h11.06a14.5,14.5,0,0,0,3.92-.43,4.64,4.64,0,0,0,3.55-3.62,18.38,18.38,0,0,0,.44-3.27h1.38v17.53h-1.38c-.17-1.24-.34-2.24-.52-3a7.29,7.29,0,0,0-.52-1.69,4,4,0,0,0-.85-1.17,4.65,4.65,0,0,0-1.34-.88,7.86,7.86,0,0,0-2-.55,16.42,16.42,0,0,0-2.71-.19H336.57v16.6a16.56,16.56,0,0,0,.29,4.09,3.4,3.4,0,0,0,.38.63,1.63,1.63,0,0,0,.65.5,4.15,4.15,0,0,0,1.11.31,10.31,10.31,0,0,0,1.73.12h8.54c1.46,0,2.68-.05,3.66-.13a14.07,14.07,0,0,0,2.56-.45,6.71,6.71,0,0,0,1.93-.89,13.42,13.42,0,0,0,1.76-1.47,17.69,17.69,0,0,0,2.34-2.86,36.83,36.83,0,0,0,2.38-4.08h1.48L361,163.33H322.23V162H324a7.92,7.92,0,0,0,1.49-.15,6,6,0,0,0,1.47-.48,5.21,5.21,0,0,0,1.24-.84,2.69,2.69,0,0,0,.78-1.17,16.34,16.34,0,0,0,.45-4.86V121.74c0-3.17-.33-5.14-1-5.9-.89-1-2.38-1.49-4.46-1.49h-1.78V113H361v11h-.89a34,34,0,0,0-.82-3.31,9.48,9.48,0,0,0-.93-2.15,4.68,4.68,0,0,0-1.19-1.36,7.91,7.91,0,0,0-1.59-.91,17.09,17.09,0,0,0-5.24-.56Z"/><path class="cls-1" d="M381.32,128.31v34.24a26.21,26.21,0,0,1-1,7.65,14.94,14.94,0,0,1-2.76,5.35,11.28,11.28,0,0,1-4.24,3.16,13.69,13.69,0,0,1-5.38,1,11.26,11.26,0,0,1-3-.35,7.46,7.46,0,0,1-2.06-.9,3.65,3.65,0,0,1-1.21-1.2,2.59,2.59,0,0,1-.39-1.3,3.16,3.16,0,0,1,1.88-2.92,2.81,2.81,0,0,1,1.17-.24l.79,0a2.25,2.25,0,0,1,.8.22,7.1,7.1,0,0,1,1.1.69c.43.32,1,.79,1.69,1.41a5.11,5.11,0,0,0,3,1.63,2.87,2.87,0,0,0,1.73-.66,4.08,4.08,0,0,0,1.28-2.34,19.43,19.43,0,0,0,.3-2.55c.07-1.15.11-2.63.11-4.44V142.61c0-2.2,0-3.93-.11-5.18a12.42,12.42,0,0,0-.41-2.8,1.69,1.69,0,0,0-.82-1.15,3.34,3.34,0,0,0-1.33-.23,7.47,7.47,0,0,0-2.53.56l-.52-1.34,10.25-4.16Zm-3.2-17.82a4,4,0,0,1,1.49.29,3.79,3.79,0,0,1,2,2,3.73,3.73,0,0,1,.3,1.48,3.65,3.65,0,0,1-.3,1.47,3.87,3.87,0,0,1-.82,1.21,3.67,3.67,0,0,1-1.22.81,3.78,3.78,0,0,1-1.49.3,3.57,3.57,0,0,1-1.46-.3,3.81,3.81,0,0,1-2-2,3.64,3.64,0,0,1-.29-1.47,3.72,3.72,0,0,1,.29-1.48,3.84,3.84,0,0,1,.82-1.23,4,4,0,0,1,1.21-.82A3.73,3.73,0,0,1,378.12,110.49Z"/><path class="cls-1" d="M402.37,128.31v27.34c0,1.09,0,2,.11,2.65a7.75,7.75,0,0,0,.34,1.65,2.26,2.26,0,0,0,.57,1,6.08,6.08,0,0,0,.8.58,7.78,7.78,0,0,0,3.35.52v1.33H391V162a16.23,16.23,0,0,0,2.06-.11,4,4,0,0,0,1.3-.38,2.19,2.19,0,0,0,.78-.65,6.16,6.16,0,0,0,.54-.94,11.94,11.94,0,0,0,.52-4.27V142.54c0-2.16,0-3.85-.11-5.09a14,14,0,0,0-.39-2.79,1.78,1.78,0,0,0-.82-1.17,3.35,3.35,0,0,0-1.36-.24,7.47,7.47,0,0,0-2.52.56l-.52-1.34,10.25-4.16Zm-3.08-17.78a3.64,3.64,0,0,1,1.47.29,4,4,0,0,1,1.19.8,3.83,3.83,0,0,1,1.09,2.66,3.6,3.6,0,0,1-.3,1.46A4,4,0,0,1,402,117a3.67,3.67,0,0,1-1.19.82,3.87,3.87,0,0,1-2.94,0,3.71,3.71,0,0,1-1.2-.82,3.87,3.87,0,0,1-.82-1.21,3.6,3.6,0,0,1-.3-1.46,3.78,3.78,0,0,1,1.1-2.66,3.81,3.81,0,0,1,2.69-1.09Z"/><path class="cls-1" d="M421.87,135.56c2.48-2.48,3.94-3.9,4.38-4.28a13.47,13.47,0,0,1,3.6-2.19,10.2,10.2,0,0,1,3.83-.78,8.54,8.54,0,0,1,5.51,1.84,9.16,9.16,0,0,1,3.07,5.41,26,26,0,0,1,6.46-5.84,11.38,11.38,0,0,1,5.42-1.41,9.61,9.61,0,0,1,3.49.63,7,7,0,0,1,2.84,2.1,10.79,10.79,0,0,1,1.92,3.92,22.25,22.25,0,0,1,.7,6v14.64c0,1.11,0,2.07.09,2.87a4.49,4.49,0,0,0,.58,2,2.72,2.72,0,0,0,1.52,1.13,9.39,9.39,0,0,0,2.94.36v1.33H451.43V162h.71a6.52,6.52,0,0,0,3-.6,3.39,3.39,0,0,0,1.63-2.15,22.61,22.61,0,0,0,.15-3.6V141a18.62,18.62,0,0,0-.37-4,6.68,6.68,0,0,0-1.1-2.52,3.83,3.83,0,0,0-1.76-1.32,7.16,7.16,0,0,0-2.42-.37,8.39,8.39,0,0,0-1.95.22,8.28,8.28,0,0,0-2,.78,16.43,16.43,0,0,0-2.25,1.47,34.78,34.78,0,0,0-2.66,2.28l.08,18.13c0,1.21,0,2.16.07,2.84a5.68,5.68,0,0,0,.28,1.56,1.7,1.7,0,0,0,.58.8c.24.17.55.37.92.59a4.17,4.17,0,0,0,1.45.43,17.52,17.52,0,0,0,2.23.13v1.33H430.86V162a14.2,14.2,0,0,0,3.14-.28,2.8,2.8,0,0,0,1.65-1,4.09,4.09,0,0,0,.63-1.95c.07-.82.11-1.86.11-3.12V141a15.43,15.43,0,0,0-.43-4,6.77,6.77,0,0,0-1.2-2.56,4.46,4.46,0,0,0-1.84-1.39,6.06,6.06,0,0,0-2.32-.43,7.49,7.49,0,0,0-2.53.46,15.43,15.43,0,0,0-2.47,1.15,14.1,14.1,0,0,0-2.13,1.53,12.08,12.08,0,0,0-1.6,1.61v18.24c0,1.16,0,2.08.11,2.76a7.51,7.51,0,0,0,.34,1.64,2.07,2.07,0,0,0,.57.91,5.36,5.36,0,0,0,.8.55,9.13,9.13,0,0,0,3.71.49v1.33H410.58V162a11.65,11.65,0,0,0,2.73-.26,2.81,2.81,0,0,0,1.56-1,4,4,0,0,0,.71-1.93,25.45,25.45,0,0,0,.16-3.21v-13c0-2.2,0-3.93-.11-5.18a12.16,12.16,0,0,0-.41-2.82,1.72,1.72,0,0,0-.81-1.17,3.43,3.43,0,0,0-1.34-.23,7.23,7.23,0,0,0-2.49.56l-.56-1.34,10.25-4.16h1.6Z"/><path class="cls-1" d="M481,110.53v33.75l8.66-7.8c.79-.71,1.42-1.3,1.89-1.74a14,14,0,0,0,1.06-1.1A2.57,2.57,0,0,0,493,133a1.74,1.74,0,0,0,.1-.56,1.65,1.65,0,0,0-.62-1.28,3.31,3.31,0,0,0-2-.62v-1.18h14.78v1.18a19.75,19.75,0,0,0-2.77.25,10.46,10.46,0,0,0-2.3.65,10.24,10.24,0,0,0-2.15,1.2,27,27,0,0,0-2.29,1.88l-8.72,8.06,8.72,11a69,69,0,0,0,4.9,5.79c.55.54,1,1,1.43,1.32a6,6,0,0,0,1.27.8,5.34,5.34,0,0,0,1.48.41A18,18,0,0,0,507,162v1.33H490.5V162a3.48,3.48,0,0,0,1.91-.43,1.3,1.3,0,0,0,.5-1.1,5.47,5.47,0,0,0-1.48-2.74L481,144.51v11.17c0,1.14,0,2.06.11,2.75a7.24,7.24,0,0,0,.34,1.65,2.18,2.18,0,0,0,.55.91,3.38,3.38,0,0,0,.79.52,10.37,10.37,0,0,0,3.71.49v1.33H469.18V162a14.48,14.48,0,0,0,2.84-.23,3.2,3.2,0,0,0,1.73-.87,3.51,3.51,0,0,0,.86-1.86,19,19,0,0,0,.22-3.17v-31c0-2,0-3.57-.06-4.78a15.13,15.13,0,0,0-.2-2.43,3.39,3.39,0,0,0-.88-1.84,2.26,2.26,0,0,0-1.54-.5,7.41,7.41,0,0,0-2.34.63l-.63-1.3,10.1-4.15Z"/><path class="cls-1" d="M528.23,158.43a49,49,0,0,1-6.57,4.68,9.91,9.91,0,0,1-4.27.93,8.16,8.16,0,0,1-3.23-.63,7.6,7.6,0,0,1-2.57-1.78,8.31,8.31,0,0,1-1.69-2.77,10,10,0,0,1-.61-3.58,8.81,8.81,0,0,1,.39-2.68,8.3,8.3,0,0,1,1.17-2.32,11.11,11.11,0,0,1,2-2.1,21.89,21.89,0,0,1,2.84-2,81.05,81.05,0,0,1,12.55-5.42v-1.34a17.73,17.73,0,0,0-.43-4.27,7.35,7.35,0,0,0-1.22-2.73,4.31,4.31,0,0,0-2-1.44,7.71,7.71,0,0,0-2.67-.43,6.2,6.2,0,0,0-2.14.35,5.36,5.36,0,0,0-1.61.93,3.77,3.77,0,0,0-1,1.34,3.54,3.54,0,0,0-.36,1.54l.08,2.15a3.72,3.72,0,0,1-.88,2.64,3,3,0,0,1-2.28.93,2.87,2.87,0,0,1-2.25-1,3.78,3.78,0,0,1-.87-2.63,6.36,6.36,0,0,1,.84-3.09,9,9,0,0,1,2.41-2.75,12.5,12.5,0,0,1,3.9-2,17.19,17.19,0,0,1,5.29-.75,17.51,17.51,0,0,1,6.69,1.15,7.31,7.31,0,0,1,4,4c.44,1.09.67,3.27.67,6.53v11.55c0,1.64,0,2.95,0,3.94s.08,1.67.13,2a2.49,2.49,0,0,0,.62,1.45,1.43,1.43,0,0,0,1,.37,2.11,2.11,0,0,0,.71-.11,2.9,2.9,0,0,0,.78-.44c.29-.23.64-.53,1-.91l1.52-1.51v2.08q-4.2,5.58-8,5.57a3.7,3.7,0,0,1-2.9-1.26C528.6,161.9,528.23,160.46,528.23,158.43Zm0-2.41v-13q-2.82,1.11-4.62,1.89a25.83,25.83,0,0,0-2.62,1.26,13,13,0,0,0-4.2,3.44,6.54,6.54,0,0,0-1.26,3.88A6.86,6.86,0,0,0,516,156a6.31,6.31,0,0,0,1.15,2,5.21,5.21,0,0,0,1.69,1.3,4.54,4.54,0,0,0,2,.46Q523.62,159.73,528.23,156Z"/><path class="cls-1" d="M552.67,128.31V136q4.3-7.65,8.76-7.65a4.92,4.92,0,0,1,1.86.34,4.75,4.75,0,0,1,1.5.91,4,4,0,0,1,1,1.32,3.5,3.5,0,0,1,.36,1.56,3.39,3.39,0,0,1-1,2.45,3.07,3.07,0,0,1-2.3,1,3.13,3.13,0,0,1-1.41-.41c-.52-.27-1-.56-1.54-.87l-1.4-.87a2,2,0,0,0-1-.41,2,2,0,0,0-1.08.42,7.47,7.47,0,0,0-1.22,1.19,16.27,16.27,0,0,0-1.3,1.82,26.27,26.27,0,0,0-1.3,2.32v16.31a18.89,18.89,0,0,0,.18,2.74,4.77,4.77,0,0,0,.8,2.08,3.9,3.9,0,0,0,1.8,1.32,8.85,8.85,0,0,0,3.16.47v1.33H541.19V162a12.91,12.91,0,0,0,2.67-.23,2.86,2.86,0,0,0,1.64-.89,3.88,3.88,0,0,0,.82-1.91,20.36,20.36,0,0,0,.22-3.29V142.5a50.1,50.1,0,0,0-.26-7.06,2.4,2.4,0,0,0-2.49-2.19,7.39,7.39,0,0,0-2.6.56l-.37-1.34,10.29-4.16Z"/><path class="cls-1" d="M587.32,158.43a49.46,49.46,0,0,1-6.58,4.68,9.84,9.84,0,0,1-4.27.93,8.2,8.2,0,0,1-3.23-.63,7.56,7.56,0,0,1-2.56-1.78,8.31,8.31,0,0,1-1.69-2.77,10,10,0,0,1-.61-3.58,8.81,8.81,0,0,1,.39-2.68,8.3,8.3,0,0,1,1.17-2.32,11.37,11.37,0,0,1,2-2.1,22.61,22.61,0,0,1,2.84-2,81.26,81.26,0,0,1,12.56-5.42v-1.34a18.25,18.25,0,0,0-.43-4.27,7.51,7.51,0,0,0-1.23-2.73,4.28,4.28,0,0,0-2-1.44,7.81,7.81,0,0,0-2.68-.43,6.18,6.18,0,0,0-2.13.35,5.54,5.54,0,0,0-1.62.93,4,4,0,0,0-1,1.34,3.53,3.53,0,0,0-.35,1.54l.07,2.15a3.72,3.72,0,0,1-.87,2.64,3,3,0,0,1-2.29.93,2.87,2.87,0,0,1-2.24-1,3.78,3.78,0,0,1-.87-2.63,6.35,6.35,0,0,1,.83-3.09,9,9,0,0,1,2.42-2.75,12.56,12.56,0,0,1,3.89-2,19.58,19.58,0,0,1,12,.4,7.28,7.28,0,0,1,4,4q.68,1.63.67,6.53v11.55c0,1.64,0,2.95.06,3.94s.08,1.67.13,2a2.49,2.49,0,0,0,.61,1.45,1.45,1.45,0,0,0,1,.37,2.05,2.05,0,0,0,.7-.11,2.9,2.9,0,0,0,.78-.44,13.42,13.42,0,0,0,1-.91l1.52-1.51v2.08q-4.18,5.58-7.94,5.57a3.69,3.69,0,0,1-2.9-1.26C587.69,161.9,587.32,160.46,587.32,158.43Zm0-2.41v-13q-2.84,1.11-4.63,1.89a27,27,0,0,0-2.62,1.26,13,13,0,0,0-4.19,3.44,6.55,6.55,0,0,0-1.27,3.88A7.08,7.08,0,0,0,575,156a6.72,6.72,0,0,0,1.15,2,5.43,5.43,0,0,0,1.69,1.3,4.58,4.58,0,0,0,2,.46Q582.71,159.73,587.32,156Z"/><path class="cls-1" d="M618.44,128.31a15.4,15.4,0,0,1,6.61,1.41,16.64,16.64,0,0,1,5.18,3.79,17.33,17.33,0,0,1,3.38,5.54,18.52,18.52,0,0,1,1.2,6.64,20.11,20.11,0,0,1-1.24,7,19.52,19.52,0,0,1-3.47,6,17,17,0,0,1-5.31,4.14,14.89,14.89,0,0,1-6.76,1.54,14.41,14.41,0,0,1-6.56-1.48,16.23,16.23,0,0,1-5.07-4,17.75,17.75,0,0,1-3.26-5.66,19.29,19.29,0,0,1-1.16-6.61,19.89,19.89,0,0,1,1.19-6.76,19.46,19.46,0,0,1,3.36-5.89,16.88,16.88,0,0,1,5.2-4.14A14.45,14.45,0,0,1,618.44,128.31Zm-1.15,2.42a7.58,7.58,0,0,0-3.14.68,7.11,7.11,0,0,0-2.68,2.23,12.17,12.17,0,0,0-1.87,4,21.46,21.46,0,0,0-.71,5.92,31.2,31.2,0,0,0,.76,6.91,22.21,22.21,0,0,0,2.16,5.81,12.36,12.36,0,0,0,3.38,4,7.22,7.22,0,0,0,4.44,1.49,7.78,7.78,0,0,0,3.28-.69,6.65,6.65,0,0,0,2.62-2.23,12,12,0,0,0,1.75-4.07,26,26,0,0,0,.63-6.2,32.26,32.26,0,0,0-.71-6.9,20.68,20.68,0,0,0-2.06-5.67,11.44,11.44,0,0,0-3.34-3.84A7.62,7.62,0,0,0,617.29,130.73Z"/><path class="cls-1" d="M649.74,135.52q6-7.2,11.4-7.21a9.38,9.38,0,0,1,3.49.63,6.76,6.76,0,0,1,2.79,2.12,10.87,10.87,0,0,1,1.86,3.94,23.91,23.91,0,0,1,.67,6.13v14.52a18.47,18.47,0,0,0,.24,3.45A3.89,3.89,0,0,0,671,161a2.66,2.66,0,0,0,1.6.82,15.9,15.9,0,0,0,2.52.17v1.33H658.32V162H659a9,9,0,0,0,2.61-.3,2.56,2.56,0,0,0,1.43-1,4.23,4.23,0,0,0,.62-2c.08-.82.13-1.85.13-3.08V141.72q0-4.64-1.21-6.74a4.31,4.31,0,0,0-4.07-2.1q-4.41,0-8.8,4.83v17.94a13.33,13.33,0,0,0,.41,4.27,4.89,4.89,0,0,0,.58,1,2.08,2.08,0,0,0,.85.65,5.32,5.32,0,0,0,1.41.36,19.84,19.84,0,0,0,2.29.11v1.33H638.45V162h.75a6.72,6.72,0,0,0,2.19-.3,2.59,2.59,0,0,0,1.35-1,4.57,4.57,0,0,0,.69-1.95,21.39,21.39,0,0,0,.18-3.06V143a52.49,52.49,0,0,0-.29-7.46,3.09,3.09,0,0,0-.84-1.82,2.26,2.26,0,0,0-1.54-.49,7.23,7.23,0,0,0-2.49.56l-.55-1.34,10.25-4.16h1.59Z"/><path class="cls-1" d="M675.92,129.32h15.86v1.37H691a3.73,3.73,0,0,0-2.5.72,2.31,2.31,0,0,0-.84,1.81,10.33,10.33,0,0,0,1.22,4l8.29,17.15,7.61-18.79a8,8,0,0,0,.63-3,2.67,2.67,0,0,0-.11-.78,1.18,1.18,0,0,0-.47-.59,2.64,2.64,0,0,0-1-.39,9.82,9.82,0,0,0-1.81-.13v-1.37h11.07v1.37a11.28,11.28,0,0,0-1.6.28,2.68,2.68,0,0,0-1.17.67,5.42,5.42,0,0,0-1,1.48q-.5,1-1.2,2.7L694.2,169.76a20.65,20.65,0,0,1-2.38,4.32,16.88,16.88,0,0,1-2.9,3.12,12.2,12.2,0,0,1-3.14,1.9,8.33,8.33,0,0,1-3.1.65,5.67,5.67,0,0,1-2-.35,5.59,5.59,0,0,1-1.58-.93,4.5,4.5,0,0,1-1-1.32,3.44,3.44,0,0,1-.37-1.56,3.26,3.26,0,0,1,1-2.51,4,4,0,0,1,2.81-1,4.92,4.92,0,0,1,1.2.23l1.64.46c.55.16,1,.32,1.5.47a4.43,4.43,0,0,0,.85.22,3,3,0,0,0,1.17-.26,4.28,4.28,0,0,0,1.27-.89,8.73,8.73,0,0,0,1.31-1.73,18.31,18.31,0,0,0,1.34-2.73l2.42-5.9L682,136.33a11.37,11.37,0,0,0-.62-1.09c-.28-.46-.58-.92-.91-1.39s-.64-.91-1-1.3a3.89,3.89,0,0,0-.82-.82,7.47,7.47,0,0,0-2.75-1Z"/><path class="cls-1" d="M721.6,142.13a21.34,21.34,0,0,0,1,6.79,15.82,15.82,0,0,0,2.71,5.11,11.63,11.63,0,0,0,3.95,3.19,10.7,10.7,0,0,0,4.74,1.1,9.43,9.43,0,0,0,5.81-1.84q2.48-1.83,4.14-6.29l1.15.74a18,18,0,0,1-1.56,4.9,16.56,16.56,0,0,1-2.95,4.31,14.55,14.55,0,0,1-4.2,3.06,11.68,11.68,0,0,1-5.21,1.17,13.46,13.46,0,0,1-5.74-1.24,14.24,14.24,0,0,1-4.72-3.53,17.05,17.05,0,0,1-3.21-5.53,21.21,21.21,0,0,1-1.19-7.3,23.45,23.45,0,0,1,1.21-7.85,17.21,17.21,0,0,1,3.32-5.82,14,14,0,0,1,5-3.6,15.53,15.53,0,0,1,6.18-1.22,13.55,13.55,0,0,1,5.22,1,12.18,12.18,0,0,1,4.14,2.8,13.17,13.17,0,0,1,2.73,4.37,15.77,15.77,0,0,1,1,5.7Zm0-2.16h15.75a13.29,13.29,0,0,0-.78-4.6,7.33,7.33,0,0,0-2.77-3.27,7,7,0,0,0-3.84-1.19,7.24,7.24,0,0,0-2.93.62,7.93,7.93,0,0,0-2.57,1.78,10,10,0,0,0-1.91,2.84A11.64,11.64,0,0,0,721.6,140Z"/><path class="cls-1" d="M153.44,175.28H138.08l-7.64-19.6-27-69.34q-1.61-4.49-3.2-9.1H99.9L67.78,159.93h45.28l6,15.33v0H46.62L93.91,59.18h12.24Z"/><polygon class="cls-1" points="193.97 59.18 193.97 74.54 124.18 74.54 117.93 59.18 193.97 59.18"/><polygon class="cls-1" points="193.97 109.56 193.97 124.91 144.7 124.91 138.45 109.56 193.97 109.56"/><polygon class="cls-1" points="193.97 159.93 193.97 175.28 165.22 175.28 158.97 159.93 193.97 159.93"/></g></g></svg>